<svg width="67" height="58" viewBox="0 0 67 58" fill="none" xmlns="http://www.w3.org/2000/svg">
<path d="M12.6406 28.9946C12.6406 29.8223 12.4772 30.642 12.1595 31.4068C11.8419 32.1716 11.3764 32.8665 10.7895 33.4518C10.2026 34.0371 9.50582 34.5014 8.739 34.8182C7.97219 35.135 7.15032 35.298 6.32032 35.298C5.49032 35.298 4.66846 35.135 3.90164 34.8182C3.13482 34.5014 2.43807 34.0371 1.85118 33.4518C1.26428 32.8665 0.798732 32.1716 0.481106 31.4068C0.16348 30.642 -1.23679e-08 29.8223 0 28.9946C2.49781e-08 27.3228 0.665889 25.7195 1.85118 24.5373C3.03647 23.3552 4.64407 22.6911 6.32032 22.6911C7.99657 22.6911 9.60417 23.3552 10.7895 24.5373C11.9748 25.7195 12.6406 27.3228 12.6406 28.9946ZM12.6406 6.30348C12.6406 7.13127 12.4772 7.95095 12.1595 8.71572C11.8419 9.48049 11.3764 10.1754 10.7895 10.7607C10.2026 11.346 9.50582 11.8104 8.739 12.1271C7.97219 12.4439 7.15032 12.607 6.32032 12.607C5.49032 12.607 4.66846 12.4439 3.90164 12.1271C3.13482 11.8104 2.43807 11.346 1.85118 10.7607C1.26428 10.1754 0.798732 9.48049 0.481106 8.71572C0.16348 7.95095 -1.23679e-08 7.13127 0 6.30348C2.49781e-08 4.63169 0.665889 3.02838 1.85118 1.84625C3.03647 0.664115 4.64407 0 6.32032 0C7.99657 0 9.60417 0.664115 10.7895 1.84625C11.9748 3.02838 12.6406 4.63169 12.6406 6.30348ZM12.6406 51.6881C12.6406 52.5158 12.4772 53.3355 12.1595 54.1003C11.8419 54.8651 11.3764 55.56 10.7895 56.1453C10.2026 56.7306 9.50582 57.1949 8.739 57.5117C7.97219 57.8285 7.15032 57.9915 6.32032 57.9915C5.49032 57.9915 4.66846 57.8285 3.90164 57.5117C3.13482 57.1949 2.43807 56.7306 1.85118 56.1453C1.26428 55.56 0.798732 54.8651 0.481106 54.1003C0.16348 53.3355 -1.23679e-08 52.5158 0 51.6881C2.49781e-08 50.0163 0.665889 48.413 1.85118 47.2308C3.03647 46.0487 4.64407 45.3846 6.32032 45.3846C7.99657 45.3846 9.60417 46.0487 10.7895 47.2308C11.9748 48.413 12.6406 50.0163 12.6406 51.6881ZM23.733 0.00120816H60.676C62.3533 0.00120816 63.9618 0.665705 65.1478 1.84852C66.3337 3.03133 67 4.63557 67 6.30831C67 7.98106 66.3337 9.5853 65.1478 10.7681C63.9618 11.9509 62.3533 12.6154 60.676 12.6154H23.733C22.0558 12.6154 20.4473 11.9509 19.2613 10.7681C18.0753 9.5853 17.409 7.98106 17.409 6.30831C17.409 4.63557 18.0753 3.03133 19.2613 1.84852C20.4473 0.665705 22.0558 0.00120816 23.733 0.00120816ZM23.733 22.6923H60.676C61.5065 22.6923 62.3289 22.8554 63.0961 23.1724C63.8634 23.4894 64.5605 23.9539 65.1478 24.5396C65.735 25.1253 66.2008 25.8206 66.5186 26.5858C66.8364 27.351 67 28.1711 67 28.9994C67 29.8277 66.8364 30.6478 66.5186 31.413C66.2008 32.1782 65.735 32.8735 65.1478 33.4592C64.5605 34.0449 63.8634 34.5094 63.0961 34.8264C62.3289 35.1434 61.5065 35.3065 60.676 35.3065H23.733C22.9025 35.3065 22.0802 35.1434 21.3129 34.8264C20.5457 34.5094 19.8485 34.0449 19.2613 33.4592C18.6741 32.8735 18.2082 32.1782 17.8904 31.413C17.5726 30.6478 17.409 29.8277 17.409 28.9994C17.409 28.1711 17.5726 27.351 17.8904 26.5858C18.2082 25.8206 18.6741 25.1253 19.2613 24.5396C19.8485 23.9539 20.5457 23.4894 21.3129 23.1724C22.0802 22.8554 22.9025 22.6923 23.733 22.6923ZM23.733 45.3858H60.676C61.5065 45.3858 62.3289 45.5489 63.0961 45.8659C63.8634 46.1829 64.5605 46.6474 65.1478 47.2331C65.735 47.8188 66.2008 48.5141 66.5186 49.2793C66.8364 50.0445 67 50.8646 67 51.6929C67 52.5212 66.8364 53.3413 66.5186 54.1065C66.2008 54.8717 65.735 55.567 65.1478 56.1527C64.5605 56.7384 63.8634 57.2029 63.0961 57.5199C62.3289 57.8369 61.5065 58 60.676 58H23.733C22.9025 58 22.0802 57.8369 21.3129 57.5199C20.5457 57.2029 19.8485 56.7384 19.2613 56.1527C18.6741 55.567 18.2082 54.8717 17.8904 54.1065C17.5726 53.3413 17.409 52.5212 17.409 51.6929C17.409 50.8646 17.5726 50.0445 17.8904 49.2793C18.2082 48.5141 18.6741 47.8188 19.2613 47.2331C19.8485 46.6474 20.5457 46.1829 21.3129 45.8659C22.0802 45.5489 22.9025 45.3858 23.733 45.3858Z" fill="#44B5A4"/>
</svg>
